<?xml version="1.0" standalone="no"?>
<!DOCTYPE svg PUBLIC "-//W3C//DTD SVG 20010904//EN"
 "http://www.w3.org/TR/2001/REC-SVG-20010904/DTD/svg10.dtd">
<svg version="1.0" xmlns="http://www.w3.org/2000/svg"
 width="1200.000000pt" height="1200.000000pt" viewBox="0 0 1200.000000 1200.000000"
 preserveAspectRatio="xMidYMid meet">
<metadata>
Created by potrace 1.14, written by Peter Selinger 2001-2017
</metadata>
<g transform="translate(0.000000,1200.000000) scale(0.100000,-0.100000)"
fill="#000000" stroke="none">
<path d="M2860 11983 c-56 -19 -92 -44 -151 -104 -208 -211 -473 -776 -731
-1554 -44 -132 -81 -249 -84 -260 -2 -11 -15 -56 -29 -100 -49 -159 -145 -521
-175 -657 -5 -24 -19 -86 -30 -138 -12 -52 -25 -119 -30 -149 -8 -44 -26 -79
-99 -185 -49 -72 -98 -148 -110 -169 -189 -337 -287 -610 -350 -977 -29 -169
-34 -233 -35 -465 -1 -224 6 -327 29 -445 3 -14 8 -38 11 -55 14 -81 61 -242
100 -342 24 -61 44 -116 44 -121 0 -5 -16 -13 -36 -17 -164 -30 -599 -223
-646 -286 -54 -71 0 -179 89 -179 15 0 57 16 93 35 97 52 300 148 308 145 1
-1 27 8 57 19 57 21 227 71 243 71 5 0 32 -35 60 -77 28 -43 60 -89 71 -102
12 -13 21 -29 21 -35 0 -6 -31 -28 -70 -49 -101 -55 -262 -163 -365 -246 -124
-99 -264 -230 -279 -260 -37 -73 20 -162 102 -160 40 1 54 9 119 69 206 192
366 310 573 422 l85 46 26 -26 c65 -68 176 -159 339 -280 92 -68 351 -206 490
-262 30 -12 71 -29 90 -37 19 -8 42 -17 50 -18 8 -2 58 -18 110 -35 52 -16
112 -33 132 -36 l36 -6 -33 -52 c-134 -203 -300 -494 -402 -706 -86 -177 -96
-201 -163 -355 -48 -112 -174 -447 -184 -490 -1 -5 -17 -55 -34 -110 -29 -94
-78 -265 -87 -310 -3 -11 -7 -29 -10 -40 -7 -29 -33 -148 -39 -176 -21 -105
-36 -192 -42 -234 -3 -27 -7 -57 -9 -65 -47 -262 -49 -712 -4 -946 5 -28 12
-63 15 -79 5 -27 27 -118 43 -180 65 -243 209 -503 377 -683 251 -269 562
-423 1004 -497 162 -27 342 -29 2255 -29 1690 0 2064 3 2155 19 14 2 46 6 71
9 52 6 152 27 249 51 122 31 201 61 326 122 82 40 95 44 140 38 173 -23 359
-20 479 6 28 6 64 13 80 16 17 3 37 9 46 14 9 5 39 16 65 25 98 33 251 120
323 183 13 12 27 21 30 21 7 0 123 112 171 166 190 210 369 525 554 976 97
239 148 312 251 362 64 32 83 37 150 37 72 0 120 -24 186 -95 82 -87 147 -119
253 -122 65 -2 92 2 133 20 194 82 274 285 184 468 -43 86 -153 202 -257 269
-97 64 -245 122 -348 137 -62 8 -254 9 -316 1 -179 -25 -391 -132 -539 -273
-129 -124 -222 -268 -304 -472 -149 -370 -278 -621 -396 -775 -50 -63 -115
-135 -109 -118 17 46 66 215 73 254 38 198 42 222 51 350 12 168 7 421 -11
580 -13 108 -22 178 -31 225 -2 14 -7 41 -10 60 -3 19 -7 46 -9 60 -3 14 -14
68 -25 120 -11 52 -23 106 -26 120 -81 377 -266 887 -479 1325 -46 94 -104
208 -130 255 -26 47 -59 105 -72 130 -37 66 -95 162 -168 275 -35 55 -64 103
-65 106 0 4 16 10 36 14 58 10 293 90 390 131 105 44 312 150 335 170 9 8 19
11 22 7 4 -3 7 -2 7 4 0 6 14 16 30 23 16 7 30 16 30 21 0 5 5 9 10 9 24 0
248 175 370 289 l42 39 106 -60 c59 -33 114 -67 123 -74 8 -8 20 -14 26 -14 6
0 13 -3 15 -7 2 -5 32 -28 68 -53 62 -43 89 -63 114 -85 6 -6 22 -18 34 -27
13 -9 69 -58 124 -110 55 -51 110 -97 122 -101 54 -21 143 22 148 72 0 9 2 23
3 31 5 52 -78 142 -280 304 -103 82 -313 223 -398 266 -26 14 -46 30 -45 35 2
6 35 56 73 112 67 98 71 102 101 98 17 -2 44 -9 60 -16 27 -10 48 -16 81 -23
7 -1 16 -5 19 -9 4 -4 15 -7 25 -7 17 0 66 -18 111 -41 10 -5 22 -9 27 -9 13
0 172 -76 243 -116 77 -44 126 -52 166 -29 74 44 77 142 5 193 -48 34 -240
127 -354 172 -82 33 -262 90 -281 90 -24 0 -24 4 21 117 103 260 153 535 151
838 0 72 -2 157 -5 190 -5 78 -34 315 -41 338 -3 10 -7 30 -9 46 -13 102 -110
423 -164 546 -105 233 -258 500 -350 610 -10 11 -27 70 -39 130 -12 61 -24
119 -27 130 -3 11 -14 63 -26 115 -11 52 -22 102 -24 110 -2 8 -16 60 -30 115
-79 306 -139 510 -249 840 -89 266 -177 508 -231 630 -7 17 -34 80 -60 140
-59 138 -147 319 -199 410 -22 39 -44 79 -50 90 -67 125 -212 287 -288 324
-113 54 -255 20 -448 -106 -293 -193 -730 -642 -1162 -1196 -64 -81 -69 -86
-93 -77 -15 6 -40 12 -58 15 -18 3 -54 10 -82 15 -27 5 -68 12 -90 15 -22 3
-51 8 -65 11 -14 2 -35 6 -47 8 -12 3 -49 7 -82 11 -33 3 -70 8 -83 10 -51 11
-123 17 -333 31 -184 11 -459 7 -630 -11 -22 -2 -65 -7 -95 -10 -30 -3 -68 -8
-85 -11 -16 -3 -46 -7 -65 -9 -55 -6 -114 -15 -130 -20 -8 -2 -40 -7 -70 -10
-30 -4 -58 -9 -61 -11 -4 -2 -24 -6 -44 -10 -21 -3 -47 -8 -59 -10 -97 -19
-78 -32 -219 146 -237 296 -410 492 -632 715 -174 174 -286 271 -410 359 -44
31 -84 59 -90 64 -28 21 -117 63 -174 82 -84 28 -145 32 -201 13z"/>
</g>
</svg>
